<svg xmlns="http://www.w3.org/2000/svg" width="18" height="20" viewBox="0 0 18 20">
  <path id="Icon_color" data-name="Icon color" d="M17.5,20H.5a.5.5,0,0,1-.5-.5v-1A.5.5,0,0,1,.5,18h17a.5.5,0,0,1,.5.5v1A.5.5,0,0,1,17.5,20Zm-1-4H1.5a.5.5,0,0,1-.5-.5v-2a.5.5,0,0,1,.5-.5H3V6H1.5A.5.5,0,0,1,1,5.5V3.67a1,1,0,0,1,.62-.92L8.02.15A1.993,1.993,0,0,1,8.78,0H9.24A1.991,1.991,0,0,1,10,.15l6.38,2.6a1,1,0,0,1,.62.92V5.5a.5.5,0,0,1-.5.5H15v7h1.5a.5.5,0,0,1,.5.5v2A.5.5,0,0,1,16.5,16ZM10,6v7h3V6ZM5,6v7H8V6Z" transform="translate(0 0)" fill="#fff"/>
</svg>
