<svg id="mini_logo" xmlns="http://www.w3.org/2000/svg" xmlns:xlink="http://www.w3.org/1999/xlink" width="48" height="48" viewBox="0 0 48 48">
  <defs>
    <clipPath id="clip-path">
      <path id="Mask" d="M33.767,48H21.641L0,48,9.729,18.474A6.7,6.7,0,1,0,13.912,5.783L15.818,0H30.411a10.966,10.966,0,0,1,7.767,3.188,10.824,10.824,0,0,1-1.51,16.643A14.234,14.234,0,0,1,33.767,48ZM15.07,29.581a10.047,10.047,0,1,0,20.093,0Z" transform="translate(0)" fill="#3457fa"/>
    </clipPath>
    <linearGradient id="linear-gradient" x1="0.69" y1="0.757" x2="0.326" y2="0.404" gradientUnits="objectBoundingBox">
      <stop offset="0" stop-color="#fff" stop-opacity="0.302"/>
      <stop offset="1" stop-color="#eef2f8" stop-opacity="0.102"/>
    </linearGradient>
  </defs>
  <g id="Group_5_Copy_2" data-name="Group 5 Copy 2" transform="translate(0 0)">
    <g id="Group_5_Copy" data-name="Group 5 Copy">
      <g id="Rectangle_Rectangle_Copy_Mask" data-name="Rectangle + Rectangle Copy Mask">
        <path id="Mask-2" data-name="Mask" d="M33.767,48H21.641L0,48,9.729,18.474A6.7,6.7,0,1,0,13.912,5.783L15.818,0H30.411a10.966,10.966,0,0,1,7.767,3.188,10.824,10.824,0,0,1-1.51,16.643A14.234,14.234,0,0,1,33.767,48ZM15.07,29.581a10.047,10.047,0,1,0,20.093,0Z" transform="translate(0)" fill="#3457fa"/>
        <g id="Rectangle_Rectangle_Copy_Mask-2" data-name="Rectangle + Rectangle Copy Mask" clip-path="url(#clip-path)">
          <path id="Rectangle" d="M24.964,0a5.606,5.606,0,0,1,3.964,9.571L9.571,28.928A5.606,5.606,0,0,1,0,24.964V7.553A7.553,7.553,0,0,1,7.553,0Z" transform="translate(54.57 3.907) rotate(90)" fill="url(#linear-gradient)"/>
          <path id="Rectangle_Copy" data-name="Rectangle Copy" d="M24.964,0a5.606,5.606,0,0,1,3.964,9.571L9.571,28.928A5.606,5.606,0,0,1,0,24.964V7.553A7.553,7.553,0,0,1,7.553,0Z" transform="translate(-15.628 47.873) rotate(-90)" fill="url(#linear-gradient)"/>
        </g>
      </g>
    </g>
  </g>
</svg>
