<svg id="Group_5" data-name="Group 5" xmlns="http://www.w3.org/2000/svg" xmlns:xlink="http://www.w3.org/1999/xlink" width="48" height="48" viewBox="0 0 48 48">
  <defs>
    <clipPath id="clip-path">
      <path id="Combined_Shape" data-name="Combined Shape" d="M33.767,48H21.641L0,48,8.2,23.115a8.954,8.954,0,0,0,7.065-.984,4.458,4.458,0,1,0,2.958-2.959A8.934,8.934,0,0,0,13.786,6.165L15.818,0H30.411a10.963,10.963,0,0,1,7.767,3.188,10.823,10.823,0,0,1-1.51,16.643A14.234,14.234,0,0,1,33.767,48Z" transform="translate(0)" fill="#3457fa"/>
    </clipPath>
    <linearGradient id="linear-gradient" x1="0.69" y1="0.757" x2="0.326" y2="0.404" gradientUnits="objectBoundingBox">
      <stop offset="0" stop-color="#fff" stop-opacity="0.302"/>
      <stop offset="1" stop-color="#eef2f8" stop-opacity="0.102"/>
    </linearGradient>
  </defs>
  <g id="Rectangle_Rectangle_Copy_Mask" data-name="Rectangle + Rectangle Copy Mask">
    <path id="Combined_Shape-2" data-name="Combined Shape" d="M33.767,48H21.641L0,48,8.2,23.115a8.954,8.954,0,0,0,7.065-.984,4.458,4.458,0,1,0,2.958-2.959A8.934,8.934,0,0,0,13.786,6.165L15.818,0H30.411a10.963,10.963,0,0,1,7.767,3.188,10.823,10.823,0,0,1-1.51,16.643A14.234,14.234,0,0,1,33.767,48Z" transform="translate(0)" fill="#3457fa"/>
    <g id="Rectangle_Rectangle_Copy_Mask-2" data-name="Rectangle + Rectangle Copy Mask" clip-path="url(#clip-path)">
      <path id="Rectangle" d="M24.964,0a5.606,5.606,0,0,1,3.964,9.571L9.571,28.928A5.606,5.606,0,0,1,0,24.964V7.553A7.553,7.553,0,0,1,7.553,0Z" transform="translate(54.57 2.233) rotate(90)" fill="url(#linear-gradient)"/>
      <path id="Rectangle_Copy" data-name="Rectangle Copy" d="M24.964,0a5.606,5.606,0,0,1,3.964,9.571L9.571,28.928A5.606,5.606,0,0,1,0,24.964V7.553A7.553,7.553,0,0,1,7.553,0Z" transform="translate(-15.628 46.198) rotate(-90)" fill="url(#linear-gradient)"/>
    </g>
  </g>
</svg>
