<?xml version="1.0" encoding="utf-8"?>
<!-- Generator: Adobe Illustrator 24.3.0, SVG Export Plug-In . SVG Version: 6.00 Build 0)  -->
<svg version="1.1" id="Layer_1" xmlns="http://www.w3.org/2000/svg" xmlns:xlink="http://www.w3.org/1999/xlink" x="0px" y="0px"
	 width="207px" height="50px" viewBox="0 0 207 50" style="enable-background:new 0 0 207 50;" xml:space="preserve">
<style type="text/css">
	.st0{fill:#3457FA;}
	.st1{filter:url(#a);}
	.st2{fill:#FFFFFF;}
	.st3{clip-path:url(#SVGID_2_);}
	.st4{fill:url(#SVGID_3_);}
	.st5{fill:url(#SVGID_4_);}
</style>
<filter  filterUnits="userSpaceOnUse" height="479.44" id="a" width="501.171" x="0" y="0">
	<feOffset  dy="40" input="SourceAlpha"></feOffset>
	<feGaussianBlur  result="b" stdDeviation="75"></feGaussianBlur>
	<feFlood  flood-color="#1a3966" flood-opacity="0.051"></feFlood>
	<feComposite  in2="b" operator="in"></feComposite>
	<feComposite  in="SourceGraphic" operator="over"></feComposite>
</filter>
<g transform="translate(73.64 176.224)">
	<g transform="translate(56.727 8.776)">
		<path class="st0" d="M6.5-143.2H3.1l3.3-7.8L0-166.7h3.7l4.5,12.2l4.7-12.2h3.4L6.5-143.2L6.5-143.2z M-7.3-150.4
			c-1.4,0-2.9-0.3-4.1-1c-1.2-0.7-2.2-1.7-2.8-2.9c-0.7-1.3-1.1-2.8-1-4.3c0-1.5,0.3-3,1-4.3c0.6-1.2,1.6-2.2,2.8-2.9
			c1.3-0.7,2.7-1,4.2-1c1.4,0,2.8,0.3,4,1c1.2,0.6,2.1,1.6,2.8,2.8c0.7,1.3,1,2.7,1,4.1c0,0.5,0,1.1-0.1,1.6h-12.2
			c0.1,1.2,0.6,2.3,1.4,3.1c0.9,0.8,2,1.2,3.1,1.2c1.6,0.1,3.1-0.8,3.8-2.2H0c-0.5,1.5-1.4,2.7-2.6,3.6
			C-4-150.9-5.6-150.4-7.3-150.4z M-7.5-164.2c-1.1,0-2.1,0.4-2.9,1.1c-0.8,0.8-1.4,1.8-1.5,3H-3c0-1.1-0.5-2.2-1.3-2.9
			C-5.2-163.8-6.3-164.2-7.5-164.2z M-41.1-150.4c-1.4,0-2.8-0.3-4.1-1c-1.2-0.7-2.2-1.7-2.9-2.9c-0.7-1.3-1.1-2.8-1-4.3
			c0-1.5,0.3-3,1.1-4.3c0.7-1.2,1.7-2.2,2.9-2.9c2.6-1.4,5.7-1.4,8.3,0c1.2,0.7,2.3,1.7,2.9,2.9c0.7,1.3,1.1,2.8,1.1,4.3
			c0,1.5-0.4,3-1.1,4.3c-0.7,1.2-1.8,2.2-3,2.9C-38.2-150.8-39.6-150.4-41.1-150.4L-41.1-150.4z M-41-164.1c-0.8,0-1.6,0.2-2.4,0.6
			c-0.7,0.4-1.3,1.1-1.7,1.8c-0.5,0.9-0.7,1.9-0.6,3c-0.1,1.5,0.4,2.9,1.3,4c0.9,0.9,2.1,1.4,3.3,1.4c0.8,0,1.7-0.2,2.4-0.6
			c0.8-0.4,1.4-1.1,1.8-1.8c0.5-0.9,0.7-1.9,0.7-3c0-1-0.2-2-0.7-3c-0.4-0.8-1-1.4-1.8-1.8C-39.3-163.9-40.1-164.1-41-164.1z
			 M-28-150.7h-3.3v-16h3.3v1.8c0.6-0.7,1.3-1.2,2.1-1.5c0.8-0.4,1.8-0.6,2.7-0.6c1.2,0,2.3,0.3,3.4,0.8c1,0.5,1.8,1.3,2.3,2.3
			c0.6,1.2,0.9,2.4,0.8,3.7v9.5h-3.3v-9c0.1-1.2-0.3-2.4-1.1-3.3c-0.8-0.8-1.8-1.2-2.9-1.1c-1.1-0.1-2.2,0.4-3,1.1
			c-0.8,0.9-1.2,2.1-1.1,3.3L-28-150.7L-28-150.7z M-68.5-150.7h-3.3v-20.2h3.6l7.1,15.9l7.1-15.9h3.5v20.2h-3.3v-13.8l-6.2,13.8
			h-2.3l-6.2-13.8L-68.5-150.7L-68.5-150.7z"/>
		<g transform="matrix(1, 0, 0, 1, -130.37, -185)" class="st1">
			<path class="st2" d="M196.5,42.2c-1.9,0.1-3.8-0.5-5.4-1.5c-1.4-0.9-2.3-2.5-2.4-4.1h3.3c0.3,0.9,0.8,1.6,1.6,2
				c0.9,0.5,1.9,0.8,3,0.8c1.2,0,2.4-0.4,3.2-1.2c0.9-1,1.3-2.2,1.2-3.5v-2.7c-1.3,1.7-3.4,2.7-5.6,2.7c-1.3,0-2.7-0.4-3.8-1.1
				c-1.2-0.7-2.1-1.7-2.7-3c-0.7-1.3-1-2.8-1-4.3c0-1.5,0.3-3,1-4.3c1.3-2.4,3.8-4,6.6-3.9c1.1,0,2.3,0.2,3.3,0.7
				c0.9,0.4,1.7,1.1,2.3,1.8v-2.3h3.3v16.3c0,1.4-0.3,2.7-0.9,3.9c-0.6,1.1-1.6,2.1-2.7,2.7C199.4,41.9,197.9,42.3,196.5,42.2z
				 M196.1,20.9c-0.8,0-1.7,0.2-2.4,0.6c-0.8,0.4-1.4,1.1-1.8,1.8c-0.5,0.9-0.7,1.9-0.7,2.9c0,1,0.2,2,0.7,2.9
				c0.4,0.8,1,1.4,1.8,1.9c0.7,0.4,1.5,0.7,2.4,0.7c0.8,0,1.7-0.2,2.4-0.6c0.8-0.4,1.4-1.1,1.8-1.9c0.5-0.9,0.7-1.9,0.7-2.9
				c0-1-0.2-2-0.7-2.9c-0.4-0.8-1-1.4-1.8-1.9C197.8,21.1,196.9,20.9,196.1,20.9z M177.4,34.6c-1.3,0-2.6-0.4-3.8-1.1
				c-1.2-0.7-2.1-1.7-2.7-3c-0.7-1.3-1-2.8-1-4.3c0-1.5,0.3-3,1-4.3c1.3-2.4,3.8-4,6.6-3.9c1.1,0,2.3,0.2,3.3,0.7
				c0.9,0.4,1.7,1.1,2.3,1.8v-2.3h3.3v16h-3.3v-2.4c-0.6,0.8-1.4,1.4-2.3,1.9C179.7,34.3,178.6,34.6,177.4,34.6z M178.2,20.9
				c-0.8,0-1.7,0.2-2.4,0.6c-0.8,0.4-1.4,1.1-1.8,1.8c-0.5,0.9-0.7,1.9-0.7,2.9c0,1,0.2,2,0.7,2.9c0.4,0.8,1,1.4,1.8,1.9
				c0.7,0.4,1.5,0.7,2.4,0.7c0.8,0,1.7-0.2,2.4-0.6c0.8-0.4,1.4-1.1,1.8-1.9c0.5-0.9,0.7-1.9,0.7-2.9c0-1-0.2-2-0.7-2.9
				c-0.4-0.8-1-1.4-1.8-1.9C179.9,21.1,179,20.9,178.2,20.9z M162,34.6c-1.1,0-2.3-0.2-3.3-0.7c-0.9-0.4-1.7-1.1-2.3-1.9v2.3h-3.3
				V12.8h3.3v7.9c0.6-0.8,1.4-1.5,2.3-1.9c1-0.5,2.1-0.8,3.3-0.7c1.3,0,2.7,0.3,3.8,1c1.2,0.7,2.1,1.7,2.7,2.9c0.7,1.3,1,2.8,1,4.3
				c0,1.5-0.3,3-1,4.3c-0.6,1.2-1.6,2.2-2.7,3C164.7,34.2,163.4,34.6,162,34.6z M161.3,20.9c-0.8,0-1.7,0.2-2.4,0.6
				c-0.8,0.4-1.4,1.1-1.8,1.9c-0.5,0.9-0.7,1.9-0.7,2.9c0,1,0.2,2,0.7,2.9c0.8,1.5,2.4,2.5,4.2,2.5c0.8,0,1.7-0.2,2.4-0.7
				c0.8-0.5,1.4-1.1,1.8-1.9c0.5-0.9,0.7-1.9,0.7-2.9c0-1-0.2-2-0.7-2.9c-0.4-0.8-1-1.4-1.8-1.8C163,21.1,162.2,20.9,161.3,20.9z"/>
		</g>
	</g>
	<path class="st0" d="M-43.7-132.2h-28.1L-65-153c2,0.6,4.1,0.3,5.9-0.8c-0.6,2,0.5,4,2.5,4.6c2,0.6,4-0.5,4.6-2.5
		c0.6-2-0.5-4-2.5-4.6c-0.7-0.2-1.5-0.2-2.2,0c2.1-3.5,1-8.1-2.5-10.2c-0.4-0.2-0.8-0.4-1.2-0.6l1.7-5.1h12.2c5-0.1,9.1,4,9.2,9
		c0,3-1.4,5.9-3.9,7.6c6.4,1.3,10.5,7.6,9.2,14C-33.2-136.2-38.1-132.2-43.7-132.2z"/>
	<g>
		<defs>
			<path id="SVGID_1_" d="M-43.7-132.2h-28.1L-65-153c2,0.6,4.1,0.3,5.9-0.8c-0.6,2,0.5,4,2.5,4.6c2,0.6,4-0.5,4.6-2.5
				c0.6-2-0.5-4-2.5-4.6c-0.7-0.2-1.5-0.2-2.2,0c2.1-3.5,1-8.1-2.5-10.2c-0.4-0.2-0.8-0.4-1.2-0.6l1.7-5.1h12.2c5-0.1,9.1,4,9.2,9
				c0,3-1.4,5.9-3.9,7.6c6.4,1.3,10.5,7.6,9.2,14C-33.2-136.2-38.1-132.2-43.7-132.2z"/>
		</defs>
		<clipPath id="SVGID_2_">
			<use xlink:href="#SVGID_1_"  style="overflow:visible;"/>
		</clipPath>
		<g class="st3">
			
				<linearGradient id="SVGID_3_" gradientUnits="userSpaceOnUse" x1="-56.2422" y1="-55.2891" x2="-56.6062" y2="-54.9361" gradientTransform="matrix(1.559453e-15 25.4678 25.4748 -1.559881e-15 1363.7627 1280.4985)">
				<stop  offset="0" style="stop-color:#FFFFFF;stop-opacity:0.302"/>
				<stop  offset="1" style="stop-color:#EEF2F8;stop-opacity:0.102"/>
			</linearGradient>
			<path class="st4" d="M-26.4-149.6c0,2.6-2.1,4.7-4.7,4.7c-1.2,0-2.4-0.5-3.3-1.4l-16.1-16.1c-1.8-1.8-1.8-4.8,0-6.6
				c0.9-0.9,2.1-1.4,3.3-1.4h14.5c3.5,0,6.3,2.8,6.3,6.3c0,0,0,0,0,0V-149.6z"/>
			
				<linearGradient id="SVGID_4_" gradientUnits="userSpaceOnUse" x1="-48.5851" y1="-48.038" x2="-48.9491" y2="-47.685" gradientTransform="matrix(1.559453e-15 -25.4678 -25.4748 -1.559881e-15 -1290.3107 -1389.5796)">
				<stop  offset="0" style="stop-color:#FFFFFF;stop-opacity:0.302"/>
				<stop  offset="1" style="stop-color:#EEF2F8;stop-opacity:0.102"/>
			</linearGradient>
			<path class="st5" d="M-84.9-154.5c0-2.6,2.1-4.7,4.7-4.7c1.2,0,2.4,0.5,3.3,1.4l16.1,16.1c1.8,1.8,1.8,4.8,0,6.6
				c-0.9,0.9-2.1,1.4-3.3,1.4h-14.5c-3.5,0-6.3-2.8-6.3-6.3c0,0,0,0,0,0V-154.5z"/>
		</g>
	</g>
</g>
</svg>
