<svg id="moneybaglogo" xmlns="http://www.w3.org/2000/svg" xmlns:xlink="http://www.w3.org/1999/xlink" width="205.567" height="40.748" viewBox="0 0 205.567 40.748">
  <defs>
    <clipPath id="clip-path">
      <path id="Mask" d="M28.666,40.748H0L8.259,15.683A5.687,5.687,0,1,0,11.811,4.909L13.428,0H25.817a9.224,9.224,0,0,1,5.311,16.834,12.084,12.084,0,0,1-2.462,23.914ZM12.794,25.113h0a8.529,8.529,0,0,0,17.058,0Z" fill="#3457fa"/>
    </clipPath>
    <linearGradient id="linear-gradient" x1="0.69" y1="0.757" x2="0.326" y2="0.404" gradientUnits="objectBoundingBox">
      <stop offset="0" stop-color="#fff" stop-opacity="0.302"/>
      <stop offset="1" stop-color="#eef2f8" stop-opacity="0.102"/>
    </linearGradient>
  </defs>
  <g id="Money_bag_Copy_2" data-name="Money bag Copy 2" transform="translate(55.567 0)">
    <text id="Money_bag" data-name="Money bag" transform="translate(0 30)" fill="#3c61fb" font-size="29" font-family="Poppins-Medium, Poppins" font-weight="500" letter-spacing="-0.063em"><tspan x="0" y="0">Money</tspan><tspan y="0" fill="#eef2f5"> </tspan><tspan y="0" fill="#101c51">bag</tspan></text>
  </g>
  <g id="Group_5_Copy_2" data-name="Group 5 Copy 2" transform="translate(0 0)">
    <g id="Group_5_Copy" data-name="Group 5 Copy">
      <g id="Rectangle_Rectangle_Copy_Mask" data-name="Rectangle + Rectangle Copy Mask">
        <path id="Mask-2" data-name="Mask" d="M28.666,40.748H0L8.259,15.683A5.687,5.687,0,1,0,11.811,4.909L13.428,0H25.817a9.224,9.224,0,0,1,5.311,16.834,12.084,12.084,0,0,1-2.462,23.914ZM12.794,25.113h0a8.529,8.529,0,0,0,17.058,0Z" fill="#3457fa"/>
        <g id="Rectangle_Rectangle_Copy_Mask-2" data-name="Rectangle + Rectangle Copy Mask" clip-path="url(#clip-path)">
          <path id="Rectangle" d="M21.193,0a4.759,4.759,0,0,1,3.365,8.125L8.125,24.558A4.759,4.759,0,0,1,0,21.193V6.412A6.412,6.412,0,0,1,6.412,0Z" transform="translate(46.327 3.317) rotate(90)" fill="url(#linear-gradient)"/>
          <path id="Rectangle_Copy" data-name="Rectangle Copy" d="M21.193,0a4.759,4.759,0,0,1,3.365,8.125L8.125,24.558A4.759,4.759,0,0,1,0,21.193V6.412A6.412,6.412,0,0,1,6.412,0Z" transform="translate(-13.267 40.641) rotate(-90)" fill="url(#linear-gradient)"/>
        </g>
      </g>
    </g>
  </g>
</svg>
