<?xml version="1.0" encoding="UTF-8"?>
<svg width="210px" height="40px" viewBox="0 0 210 40" version="1.1" xmlns="http://www.w3.org/2000/svg" xmlns:xlink="http://www.w3.org/1999/xlink">
    <title>Logo na tmavom</title>
    <defs>
        <path d="M25.3427928,0 C30.3975389,0 34.4952197,4.0606732 34.4952197,9.06976744 C34.4952197,12.1596734 32.9359895,14.8886907 30.554708,16.5262978 C35.9467699,17.6404851 39.9999994,22.4166687 39.9999994,28.1395349 C39.9999994,34.5891142 34.8520201,39.8363184 28.4409634,39.9962443 L28.1395349,40 L18.0347161,40 C18.0336828,39.99936 18.03265,39.9987196 18.0316176,39.998079 L-5.61221103e-13,39.9985642 L8.10834051,15.3955063 L8.13801042,15.4076266 C6.09335497,14.5792651 4.65116279,12.5743326 4.65116279,10.2325581 C4.65116279,7.15003861 7.15003861,4.65116279 10.2325581,4.65116279 C10.720307,4.65116279 11.1934433,4.71372694 11.6443795,4.83126786 L11.6228136,4.82569277 C11.6131112,4.82320536 11.6033986,4.82074338 11.5936759,4.8183069 L13.1813227,0 L25.3427928,0 Z M19.6383603,20.1904164 L15.9320862,34.0224198 C19.7516885,35.0458791 23.6777656,32.7791574 24.701225,28.9595552 C25.7246843,25.1399529 23.4579626,21.2138758 19.6383603,20.1904164 Z M11.6448773,4.83139764 L8.175,15.421 L8.39271151,15.5036033 C8.96878958,15.7046643 9.58791093,15.8139535 10.2325581,15.8139535 C13.3150777,15.8139535 15.8139535,13.3150777 15.8139535,10.2325581 C15.8139535,7.63796699 14.0435557,5.4568744 11.6448773,4.83139764 Z" id="path-1"></path>
        <linearGradient x1="69.0231416%" y1="75.7126835%" x2="32.6078362%" y2="40.417081%" id="linearGradient-3">
            <stop stop-color="#FFFFFF" stop-opacity="0.3" offset="0%"></stop>
            <stop stop-color="#EEF2F8" stop-opacity="0.1" offset="100%"></stop>
        </linearGradient>
    </defs>
    <g id="Homepage" stroke="none" stroke-width="1" fill="none" fill-rule="evenodd">
        <g id="Logo-na-tmavom">
            <g id="Money-bag-Copy-2" transform="translate(56.363636, 9.696970)" fill-rule="nonzero">
                <g id="Moneybag" transform="translate(0.363636, 0.126061)">
                    <path d="M3.31636364,20.48 L3.31636364,6.63272727 L9.51272727,20.48 L11.8109091,20.48 L17.9781818,6.63272727 L17.9781818,20.48 L21.2945455,20.48 L21.2945455,0.261818182 L17.7454545,0.261818182 L10.6763636,16.1163636 L3.57818182,0.261818182 L9.47390314e-14,0.261818182 L9.47390314e-14,20.48 L3.31636364,20.48 Z M33.6678788,20.6836364 C35.5684848,20.6836364 37.3090909,20.2424242 38.889697,19.36 C40.470303,18.4775758 41.7163636,17.2460606 42.6278788,15.6654545 C43.5393939,14.0848485 43.9951515,12.3054545 43.9951515,10.3272727 C43.9951515,8.34909091 43.5393939,6.57454545 42.6278788,5.00363636 C41.7163636,3.43272727 40.470303,2.20606061 38.889697,1.32363636 C37.3090909,0.441212121 35.5684848,1.85171743e-13 33.6678788,1.85171743e-13 C31.7866667,1.85171743e-13 30.0557576,0.441212121 28.4751515,1.32363636 C26.8945455,2.20606061 25.6436364,3.43272727 24.7224242,5.00363636 C23.8012121,6.57454545 23.3406061,8.34909091 23.3406061,10.3272727 C23.3406061,12.3054545 23.8012121,14.0848485 24.7224242,15.6654545 C25.6436364,17.2460606 26.8945455,18.4775758 28.4751515,19.36 C30.0557576,20.2424242 31.7866667,20.6836364 33.6678788,20.6836364 Z M33.6678788,17.8036364 C32.329697,17.8036364 31.1369697,17.4981818 30.089697,16.8872727 C29.0424242,16.2763636 28.2230303,15.4036364 27.6315152,14.2690909 C27.04,13.1345455 26.7442424,11.8206061 26.7442424,10.3272727 C26.7442424,8.83393939 27.04,7.52484848 27.6315152,6.4 C28.2230303,5.27515152 29.0424242,4.41212121 30.089697,3.81090909 C31.1369697,3.20969697 32.329697,2.90909091 33.6678788,2.90909091 C35.0060606,2.90909091 36.1987879,3.20969697 37.2460606,3.81090909 C38.2933333,4.41212121 39.1127273,5.27515152 39.7042424,6.4 C40.2957576,7.52484848 40.5915152,8.83393939 40.5915152,10.3272727 C40.5915152,11.8206061 40.2957576,13.1345455 39.7042424,14.2690909 C39.1127273,15.4036364 38.2933333,16.2763636 37.2460606,16.8872727 C36.1987879,17.4981818 35.0060606,17.8036364 33.6678788,17.8036364 Z M49.3575758,20.48 L49.3575758,5.38181818 L59.3357576,20.48 L62.6521212,20.48 L62.6521212,0.232727273 L59.3357576,0.232727273 L59.3357576,15.3018182 L49.3575758,0.232727273 L46.0412121,0.232727273 L46.0412121,20.48 L49.3575758,20.48 Z M76.9745455,20.48 L76.9745455,17.7745455 L69.12,17.7745455 L69.12,11.5781818 L76.1018182,11.5781818 L76.1018182,8.87272727 L69.12,8.87272727 L69.12,2.93818182 L76.9745455,2.93818182 L76.9745455,0.232727273 L65.8036364,0.232727273 L65.8036364,20.48 L76.9745455,20.48 Z M88.1260606,20.48 L88.1260606,13.1490909 L94.8169697,0.261818182 L91.1515152,0.261818182 L86.4678788,10.1818182 L81.7842424,0.261818182 L78.089697,0.261818182 L84.809697,13.1490909 L84.809697,20.48 L88.1260606,20.48 Z" id="MONEY" fill="#FFFFFF"></path>
                    <path d="M104.310303,20.48 C105.648485,20.48 106.821818,20.2424242 107.830303,19.7672727 C108.838788,19.2921212 109.609697,18.6424242 110.14303,17.8181818 C110.676364,16.9939394 110.94303,16.0678788 110.94303,15.04 C110.94303,13.8375758 110.564848,12.7612121 109.808485,11.8109091 C109.052121,10.8606061 108.130909,10.2884848 107.044848,10.0945455 C108.092121,9.72606061 108.926061,9.15393939 109.546667,8.37818182 C110.167273,7.60242424 110.477576,6.63272727 110.477576,5.46909091 C110.477576,4.49939394 110.225455,3.62181818 109.721212,2.83636364 C109.21697,2.05090909 108.470303,1.42545455 107.481212,0.96 C106.492121,0.494545455 105.309091,0.261818182 103.932121,0.261818182 L103.932121,0.261818182 L96.2230303,0.261818182 L96.2230303,20.48 L104.310303,20.48 Z M103.641212,8.75636364 L99.5393939,8.75636364 L99.5393939,2.96727273 L103.641212,2.96727273 C104.727273,2.96727273 105.575758,3.22424242 106.186667,3.73818182 C106.797576,4.25212121 107.10303,4.96484848 107.10303,5.87636364 C107.10303,6.80727273 106.797576,7.52 106.186667,8.01454545 C105.575758,8.50909091 104.727273,8.75636364 103.641212,8.75636364 L103.641212,8.75636364 Z M104.019394,17.7745455 L99.5393939,17.7745455 L99.5393939,11.4618182 L103.90303,11.4618182 C105.027879,11.4618182 105.929697,11.7527273 106.608485,12.3345455 C107.287273,12.9163636 107.626667,13.7018182 107.626667,14.6909091 C107.626667,15.6606061 107.306667,16.4169697 106.666667,16.96 C106.026667,17.5030303 105.144242,17.7745455 104.019394,17.7745455 L104.019394,17.7745455 Z M115.607273,20.48 L117.061818,16.3490909 L125.527273,16.3490909 L126.981818,20.48 L130.472727,20.48 L123.229091,0.232727273 L119.389091,0.232727273 L112.145455,20.48 L115.607273,20.48 Z M124.596364,13.6436364 L117.992727,13.6436364 L121.309091,4.24727273 L124.596364,13.6436364 Z M141.624242,20.6545455 C143.389091,20.6545455 144.993939,20.2618182 146.438788,19.4763636 C147.883636,18.6909091 149.05697,17.6387879 149.958788,16.32 C150.860606,15.0012121 151.418182,13.5563636 151.631515,11.9854545 L151.631515,11.9854545 L151.631515,9.39636364 L140.489697,9.39636364 L140.489697,12.0436364 L148.082424,12.0436364 C147.830303,13.769697 147.141818,15.1369697 146.01697,16.1454545 C144.892121,17.1539394 143.427879,17.6581818 141.624242,17.6581818 C140.286061,17.6581818 139.093333,17.3575758 138.046061,16.7563636 C136.998788,16.1551515 136.179394,15.2969697 135.587879,14.1818182 C134.996364,13.0666667 134.700606,11.7818182 134.700606,10.3272727 C134.700606,8.87272727 134.996364,7.59272727 135.587879,6.48727273 C136.179394,5.38181818 136.998788,4.52848485 138.046061,3.92727273 C139.093333,3.32606061 140.286061,3.02545455 141.624242,3.02545455 C142.846061,3.02545455 143.922424,3.28242424 144.853333,3.79636364 C145.784242,4.31030303 146.511515,5.07151515 147.035152,6.08 L147.035152,6.08 L151.020606,6.08 C150.264242,4.14060606 149.047273,2.64242424 147.369697,1.58545455 C145.692121,0.528484848 143.77697,-2.15315981e-14 141.624242,-2.15315981e-14 C139.74303,-2.15315981e-14 138.012121,0.441212121 136.431515,1.32363636 C134.850909,2.20606061 133.6,3.43272727 132.678788,5.00363636 C131.757576,6.57454545 131.29697,8.34909091 131.29697,10.3272727 C131.29697,12.3054545 131.757576,14.08 132.678788,15.6509091 C133.6,17.2218182 134.846061,18.4484848 136.41697,19.3309091 C137.987879,20.2133333 139.723636,20.6545455 141.624242,20.6545455 Z" id="BAG" fill="#3C61FB"></path>
                </g>
            </g>
            <g id="Rectangle-+-Rectangle-Copy-Mask">
                <mask id="mask-2" fill="white">
                    <use xlink:href="#path-1"></use>
                </mask>
                <use id="Combined-Shape" fill="#3457FA" xlink:href="#path-1"></use>
                <path d="M40.8033473,3.25581395 C42.0934572,3.25581395 43.2614325,3.77873429 44.1068803,4.62418212 C44.9523281,5.46962994 45.4752485,6.63760523 45.4752485,7.92771515 C45.4752485,9.16678041 44.9830317,10.3550967 44.1068803,11.2312482 L27.9754342,27.3626943 C27.0631888,28.2749397 25.8675449,28.7310624 24.6719012,28.7310624 C23.4762575,28.7310624 22.2806136,28.2749397 21.3683682,27.3626943 C20.4922168,26.4865428 20,25.2982265 20,24.0591612 L20,9.54972243 C20,7.81170763 20.7044697,6.23823051 21.8434432,5.09925712 C22.9824166,3.96028362 24.5558937,3.25581395 26.2939085,3.25581395 L40.8033473,3.25581395 Z" id="Rectangle" fill="url(#linearGradient-3)" mask="url(#mask-2)" transform="translate(32.737624, 15.993438) rotate(-270.000000) translate(-32.737624, -15.993438) "></path>
                <path d="M7.78009147,14.4186047 C9.07020139,14.4186047 10.2381767,14.941525 11.0836245,15.7869728 C11.9290723,16.6324206 12.4519927,17.8003959 12.4519927,19.0905058 C12.4519927,20.3295711 11.9597759,21.5178874 11.0836245,22.3940389 L-5.04782158,38.525485 C-5.96006703,39.4377304 -7.15571087,39.8938531 -8.35135462,39.8938531 C-9.54699836,39.8938531 -10.7426422,39.4377304 -11.6548877,38.525485 C-12.5310391,37.6493335 -13.0232558,36.4610172 -13.0232558,35.2219519 L-13.0232558,20.7125131 C-13.0232558,18.9744983 -12.3187861,17.4010212 -11.1798127,16.2620478 C-10.0408393,15.1230743 -8.46736214,14.4186047 -6.72934734,14.4186047 L7.78009147,14.4186047 Z" id="Rectangle-Copy" fill="url(#linearGradient-3)" mask="url(#mask-2)" transform="translate(-0.285632, 27.156229) rotate(-90.000000) translate(0.285632, -27.156229) "></path>
            </g>
        </g>
    </g>
</svg>