<?xml version="1.0" encoding="utf-8"?>
<!-- Generator: Adobe Illustrator 24.3.0, SVG Export Plug-In . SVG Version: 6.00 Build 0)  -->
<svg version="1.1" id="Layer_1" xmlns="http://www.w3.org/2000/svg" xmlns:xlink="http://www.w3.org/1999/xlink" x="0px" y="0px"
	 width="207px" height="49.6px" viewBox="0 0 207 49.6" style="enable-background:new 0 0 207 49.6;" xml:space="preserve">
<style type="text/css">
	.st0{fill:#3457FA;}
	.st1{fill:#0F1839;}
	.st2{clip-path:url(#SVGID_2_);}
	.st3{fill:url(#Rectangle_1_);}
	.st4{fill:url(#Rectangle_Copy_1_);}
</style>
<g id="Group_Copy_2" transform="translate(73.64 176.224)">
	<g id="Money_bag" transform="translate(56.727 8.776)">
		<path id="Money" class="st0" d="M6.9-142.2H3.5l3.3-7.8l-6.3-15.8h3.7l4.5,12.2l4.7-12.2h3.4L6.9-142.2L6.9-142.2z M-6.9-149.4
			c-1.4,0-2.9-0.3-4.1-1c-1.2-0.7-2.2-1.7-2.8-2.9c-0.7-1.3-1.1-2.8-1-4.4c0-1.5,0.3-3,1-4.3c0.6-1.2,1.6-2.2,2.8-2.9
			c1.3-0.7,2.7-1,4.2-1c1.4,0,2.8,0.3,4,1c1.2,0.6,2.1,1.6,2.8,2.8c0.7,1.3,1,2.7,1,4.1c0,0.5,0,1.1-0.1,1.6h-12.2
			c0.1,1.2,0.6,2.3,1.4,3.1c0.9,0.8,2,1.2,3.1,1.2c1.6,0.1,3.1-0.8,3.8-2.2h3.6c-0.5,1.5-1.4,2.7-2.6,3.6
			C-3.6-149.9-5.2-149.4-6.9-149.4z M-7.1-163.2c-1.1,0-2.1,0.4-2.9,1.1c-0.8,0.8-1.4,1.8-1.5,3h8.9c0-1.1-0.5-2.2-1.3-2.9
			C-4.8-162.8-5.9-163.2-7.1-163.2z M-40.7-149.4c-1.4,0-2.8-0.3-4.1-1c-1.2-0.7-2.2-1.7-2.9-2.9c-0.7-1.3-1.1-2.8-1-4.4
			c0-1.5,0.3-3,1.1-4.3c0.7-1.2,1.7-2.2,2.9-2.9c2.6-1.4,5.7-1.4,8.3,0c1.2,0.7,2.3,1.7,2.9,2.9c0.7,1.3,1.1,2.8,1.1,4.3
			c0,1.5-0.4,3-1.1,4.3c-0.7,1.2-1.8,2.2-3,2.9C-37.7-149.8-39.2-149.4-40.7-149.4L-40.7-149.4z M-40.6-163.1
			c-0.8,0-1.6,0.2-2.4,0.6c-0.7,0.4-1.3,1.1-1.7,1.8c-0.5,0.9-0.7,1.9-0.6,3c-0.1,1.5,0.4,2.9,1.3,4c0.9,0.9,2.1,1.4,3.3,1.4
			c0.8,0,1.7-0.2,2.4-0.6c0.8-0.4,1.4-1.1,1.8-1.8c0.5-0.9,0.7-1.9,0.7-3c0-1-0.2-2-0.7-3c-0.4-0.8-1-1.4-1.8-1.8
			C-38.9-162.9-39.7-163.1-40.6-163.1z M-27.5-149.7h-3.3v-16h3.3v1.8c0.6-0.7,1.3-1.2,2.1-1.5c0.8-0.4,1.8-0.6,2.7-0.6
			c1.2,0,2.3,0.3,3.4,0.8c1,0.5,1.8,1.3,2.3,2.3c0.6,1.2,0.9,2.4,0.8,3.7v9.5h-3.3v-9c0.1-1.2-0.3-2.4-1.1-3.3
			c-0.8-0.8-1.8-1.2-2.9-1.1c-1.1-0.1-2.2,0.4-3,1.1c-0.8,0.9-1.2,2.1-1.1,3.3L-27.5-149.7L-27.5-149.7z M-68.1-149.7h-3.3v-20.2
			h3.6l7.1,15.9l7.1-15.9h3.5v20.2h-3.3v-13.8l-6.2,13.8h-2.3l-6.2-13.8L-68.1-149.7L-68.1-149.7z"/>
		<g transform="matrix(1, 0, 0, 1, -130.37, -185)">
			<path id="bag-2" class="st1" d="M196.9,43.2c-1.9,0.1-3.8-0.5-5.4-1.5c-1.4-0.9-2.3-2.5-2.4-4.1h3.3c0.3,0.9,0.8,1.6,1.6,2
				c0.9,0.5,1.9,0.8,3,0.8c1.2,0,2.4-0.4,3.2-1.2c0.9-1,1.3-2.2,1.2-3.5v-2.7c-1.3,1.7-3.4,2.7-5.6,2.7c-1.3,0-2.7-0.4-3.8-1.1
				c-1.2-0.7-2.1-1.7-2.7-3c-0.7-1.3-1-2.8-1-4.3c0-1.5,0.3-3,1-4.3c1.3-2.4,3.8-4,6.6-3.9c1.1,0,2.3,0.2,3.3,0.7
				c0.9,0.4,1.7,1.1,2.3,1.8v-2.3h3.3v16.3c0,1.4-0.3,2.7-0.9,3.9c-0.6,1.1-1.6,2.1-2.7,2.7C199.8,42.9,198.4,43.3,196.9,43.2z
				 M196.5,21.9c-0.8,0-1.7,0.2-2.4,0.6c-0.8,0.4-1.4,1.1-1.8,1.8c-0.5,0.9-0.7,1.9-0.7,2.9c0,1,0.2,2,0.7,2.9
				c0.4,0.8,1,1.4,1.8,1.9c0.7,0.4,1.5,0.7,2.4,0.7c0.8,0,1.7-0.2,2.4-0.6c0.8-0.4,1.4-1.1,1.8-1.9c0.5-0.9,0.7-1.9,0.7-2.9
				c0-1-0.2-2-0.7-2.9c-0.4-0.8-1-1.4-1.8-1.9C198.2,22.1,197.4,21.9,196.5,21.9z M177.9,35.6c-1.3,0-2.6-0.4-3.8-1.1
				c-1.2-0.7-2.1-1.7-2.7-3c-0.7-1.3-1-2.8-1-4.3c0-1.5,0.3-3,1-4.3c1.3-2.4,3.8-4,6.6-3.9c1.1,0,2.3,0.2,3.3,0.7
				c0.9,0.4,1.7,1.1,2.3,1.8v-2.3h3.3v16h-3.3v-2.4c-0.6,0.8-1.4,1.4-2.3,1.9C180.1,35.3,179,35.6,177.9,35.6z M178.6,21.9
				c-0.8,0-1.7,0.2-2.4,0.6c-0.8,0.4-1.4,1.1-1.8,1.8c-0.5,0.9-0.7,1.9-0.7,2.9c0,1,0.2,2,0.7,2.9c0.4,0.8,1,1.4,1.8,1.9
				c0.7,0.4,1.5,0.7,2.4,0.7c0.8,0,1.7-0.2,2.4-0.6c0.8-0.4,1.4-1.1,1.8-1.9c0.5-0.9,0.7-1.9,0.7-2.9c0-1-0.2-2-0.7-2.9
				c-0.4-0.8-1-1.4-1.8-1.9C180.3,22.1,179.5,21.9,178.6,21.9z M162.5,35.6c-1.1,0-2.3-0.2-3.3-0.7c-0.9-0.4-1.7-1.1-2.3-1.9v2.3
				h-3.3V13.8h3.3v7.9c0.6-0.8,1.4-1.5,2.3-1.9c1-0.5,2.1-0.8,3.3-0.7c1.3,0,2.7,0.3,3.8,1c1.2,0.7,2.1,1.7,2.7,2.9
				c0.7,1.3,1,2.8,1,4.3c0,1.5-0.3,3-1,4.3c-0.6,1.2-1.6,2.2-2.7,3C165.1,35.2,163.8,35.6,162.5,35.6z M161.7,21.9
				c-0.8,0-1.7,0.2-2.4,0.6c-0.8,0.4-1.4,1.1-1.8,1.9c-0.5,0.9-0.7,1.9-0.7,2.9c0,1,0.2,2,0.7,2.9c0.8,1.5,2.4,2.5,4.2,2.5
				c0.8,0,1.7-0.2,2.4-0.7c0.8-0.5,1.4-1.1,1.8-1.9c0.5-0.9,0.7-1.9,0.7-2.9c0-1-0.2-2-0.7-2.9c-0.4-0.8-1-1.4-1.8-1.8
				C163.4,22.1,162.6,21.9,161.7,21.9z"/>
		</g>
	</g>
	<g id="Group_5">
		<g id="Rectangle_Rectangle_Copy_Mask">
			<path id="Combined_Shape-2" class="st0" d="M-43.3-131.2h-28.1l6.8-20.7c2,0.6,4.1,0.3,5.9-0.8c-0.6,2,0.5,4,2.5,4.6
				s4-0.5,4.6-2.5c0.6-2-0.5-4-2.5-4.6c-0.7-0.2-1.5-0.2-2.2,0c2.1-3.5,1-8.1-2.5-10.2c-0.4-0.2-0.8-0.4-1.2-0.6l1.7-5.1h12.2
				c5-0.1,9.1,4,9.2,9c0,3-1.4,5.9-3.9,7.6c6.4,1.3,10.5,7.6,9.2,14C-32.8-135.2-37.7-131.2-43.3-131.2z"/>
			<g>
				<defs>
					<path id="SVGID_1_" d="M-43.3-131.2h-28.1l6.8-20.7c2,0.6,4.1,0.3,5.9-0.8c-0.6,2,0.5,4,2.5,4.6s4-0.5,4.6-2.5
						c0.6-2-0.5-4-2.5-4.6c-0.7-0.2-1.5-0.2-2.2,0c2.1-3.5,1-8.1-2.5-10.2c-0.4-0.2-0.8-0.4-1.2-0.6l1.7-5.1h12.2c5-0.1,9.1,4,9.2,9
						c0,3-1.4,5.9-3.9,7.6c6.4,1.3,10.5,7.6,9.2,14C-32.8-135.2-37.7-131.2-43.3-131.2z"/>
				</defs>
				<clipPath id="SVGID_2_">
					<use xlink:href="#SVGID_1_"  style="overflow:visible;"/>
				</clipPath>
				<g id="Rectangle_Rectangle_Copy_Mask-2" class="st2">
					
						<linearGradient id="Rectangle_1_" gradientUnits="userSpaceOnUse" x1="37.0586" y1="155.4552" x2="36.6946" y2="155.8082" gradientTransform="matrix(1.559453e-15 25.4678 25.4748 -1.559881e-15 -4004.4915 -1094.666)">
						<stop  offset="0" style="stop-color:#FFFFFF;stop-opacity:0.302"/>
						<stop  offset="1" style="stop-color:#EEF2F8;stop-opacity:0.102"/>
					</linearGradient>
					<path id="Rectangle" class="st3" d="M-26-148.6c0,2.6-2.1,4.7-4.7,4.7c-1.2,0-2.4-0.5-3.3-1.4l-16.1-16.1
						c-1.8-1.8-1.8-4.8,0-6.6c0.9-0.9,2.1-1.4,3.3-1.4h14.5c3.5,0,6.3,2.8,6.3,6.3c0,0,0,0,0,0V-148.6z"/>
					
						<linearGradient id="Rectangle_Copy_1_" gradientUnits="userSpaceOnUse" x1="61.4992" y1="170.6577" x2="61.1352" y2="171.0107" gradientTransform="matrix(1.559453e-15 -25.4678 -25.4748 -1.559881e-15 4281.3286 1415.0249)">
						<stop  offset="0" style="stop-color:#FFFFFF;stop-opacity:0.302"/>
						<stop  offset="1" style="stop-color:#EEF2F8;stop-opacity:0.102"/>
					</linearGradient>
					<path id="Rectangle_Copy" class="st4" d="M-84.5-153.5c0-2.6,2.1-4.7,4.7-4.7c1.2,0,2.4,0.5,3.3,1.4l16.1,16.1
						c1.8,1.8,1.8,4.8,0,6.6c-0.9,0.9-2.1,1.4-3.3,1.4h-14.5c-3.5,0-6.3-2.8-6.3-6.3c0,0,0,0,0,0V-153.5z"/>
				</g>
			</g>
		</g>
	</g>
</g>
</svg>
