<svg id="Group_14_Copy_2" data-name="Group 14 Copy 2" xmlns="http://www.w3.org/2000/svg" width="156" height="156" viewBox="0 0 156 156">
  <circle id="Oval" cx="1.5" cy="1.5" r="1.5" fill="#cad6e4"/>
  <circle id="Oval_Copy_10" data-name="Oval Copy 10" cx="1.5" cy="1.5" r="1.5" transform="translate(0 17)" fill="#cad6e4"/>
  <circle id="Oval_Copy_20" data-name="Oval Copy 20" cx="1.5" cy="1.5" r="1.5" transform="translate(0 34)" fill="#cad6e4"/>
  <circle id="Oval_Copy_30" data-name="Oval Copy 30" cx="1.5" cy="1.5" r="1.5" transform="translate(0 51)" fill="#cad6e4"/>
  <circle id="Oval_Copy_40" data-name="Oval Copy 40" cx="1.5" cy="1.5" r="1.5" transform="translate(0 68)" fill="#cad6e4"/>
  <circle id="Oval_Copy_50" data-name="Oval Copy 50" cx="1.5" cy="1.5" r="1.5" transform="translate(0 85)" fill="#cad6e4"/>
  <circle id="Oval_Copy_60" data-name="Oval Copy 60" cx="1.5" cy="1.5" r="1.5" transform="translate(0 102)" fill="#cad6e4"/>
  <circle id="Oval_Copy_70" data-name="Oval Copy 70" cx="1.5" cy="1.5" r="1.5" transform="translate(0 119)" fill="#cad6e4"/>
  <circle id="Oval_Copy_80" data-name="Oval Copy 80" cx="1.5" cy="1.5" r="1.5" transform="translate(0 136)" fill="#cad6e4"/>
  <circle id="Oval_Copy_90" data-name="Oval Copy 90" cx="1.5" cy="1.5" r="1.5" transform="translate(0 153)" fill="#cad6e4"/>
  <circle id="Oval_Copy_3" data-name="Oval Copy 3" cx="1.5" cy="1.5" r="1.5" transform="translate(51)" fill="#cad6e4"/>
  <circle id="Oval_Copy_11" data-name="Oval Copy 11" cx="1.5" cy="1.5" r="1.5" transform="translate(51 17)" fill="#cad6e4"/>
  <circle id="Oval_Copy_21" data-name="Oval Copy 21" cx="1.5" cy="1.5" r="1.5" transform="translate(51 34)" fill="#cad6e4"/>
  <circle id="Oval_Copy_31" data-name="Oval Copy 31" cx="1.5" cy="1.5" r="1.5" transform="translate(51 51)" fill="#cad6e4"/>
  <circle id="Oval_Copy_41" data-name="Oval Copy 41" cx="1.5" cy="1.5" r="1.5" transform="translate(51 68)" fill="#cad6e4"/>
  <circle id="Oval_Copy_51" data-name="Oval Copy 51" cx="1.5" cy="1.5" r="1.5" transform="translate(51 85)" fill="#cad6e4"/>
  <circle id="Oval_Copy_61" data-name="Oval Copy 61" cx="1.5" cy="1.5" r="1.5" transform="translate(51 102)" fill="#cad6e4"/>
  <circle id="Oval_Copy_71" data-name="Oval Copy 71" cx="1.5" cy="1.5" r="1.5" transform="translate(51 119)" fill="#cad6e4"/>
  <circle id="Oval_Copy_81" data-name="Oval Copy 81" cx="1.5" cy="1.5" r="1.5" transform="translate(51 136)" fill="#cad6e4"/>
  <circle id="Oval_Copy_91" data-name="Oval Copy 91" cx="1.5" cy="1.5" r="1.5" transform="translate(51 153)" fill="#cad6e4"/>
  <circle id="Oval_Copy_6" data-name="Oval Copy 6" cx="1.5" cy="1.5" r="1.5" transform="translate(102)" fill="#cad6e4"/>
  <circle id="Oval_Copy_12" data-name="Oval Copy 12" cx="1.5" cy="1.5" r="1.5" transform="translate(102 17)" fill="#cad6e4"/>
  <circle id="Oval_Copy_22" data-name="Oval Copy 22" cx="1.5" cy="1.5" r="1.5" transform="translate(102 34)" fill="#cad6e4"/>
  <circle id="Oval_Copy_32" data-name="Oval Copy 32" cx="1.5" cy="1.5" r="1.5" transform="translate(102 51)" fill="#cad6e4"/>
  <circle id="Oval_Copy_42" data-name="Oval Copy 42" cx="1.5" cy="1.5" r="1.5" transform="translate(102 68)" fill="#cad6e4"/>
  <circle id="Oval_Copy_52" data-name="Oval Copy 52" cx="1.5" cy="1.5" r="1.5" transform="translate(102 85)" fill="#cad6e4"/>
  <circle id="Oval_Copy_62" data-name="Oval Copy 62" cx="1.5" cy="1.5" r="1.5" transform="translate(102 102)" fill="#cad6e4"/>
  <circle id="Oval_Copy_72" data-name="Oval Copy 72" cx="1.5" cy="1.5" r="1.5" transform="translate(102 119)" fill="#cad6e4"/>
  <circle id="Oval_Copy_82" data-name="Oval Copy 82" cx="1.5" cy="1.5" r="1.5" transform="translate(102 136)" fill="#cad6e4"/>
  <circle id="Oval_Copy_92" data-name="Oval Copy 92" cx="1.5" cy="1.5" r="1.5" transform="translate(102 153)" fill="#cad6e4"/>
  <circle id="Oval_Copy" data-name="Oval Copy" cx="1.5" cy="1.5" r="1.5" transform="translate(17)" fill="#cad6e4"/>
  <circle id="Oval_Copy_13" data-name="Oval Copy 13" cx="1.5" cy="1.5" r="1.5" transform="translate(17 17)" fill="#cad6e4"/>
  <circle id="Oval_Copy_23" data-name="Oval Copy 23" cx="1.5" cy="1.5" r="1.5" transform="translate(17 34)" fill="#cad6e4"/>
  <circle id="Oval_Copy_33" data-name="Oval Copy 33" cx="1.5" cy="1.5" r="1.5" transform="translate(17 51)" fill="#cad6e4"/>
  <circle id="Oval_Copy_43" data-name="Oval Copy 43" cx="1.5" cy="1.5" r="1.5" transform="translate(17 68)" fill="#cad6e4"/>
  <circle id="Oval_Copy_53" data-name="Oval Copy 53" cx="1.5" cy="1.5" r="1.5" transform="translate(17 85)" fill="#cad6e4"/>
  <circle id="Oval_Copy_63" data-name="Oval Copy 63" cx="1.5" cy="1.5" r="1.5" transform="translate(17 102)" fill="#cad6e4"/>
  <circle id="Oval_Copy_73" data-name="Oval Copy 73" cx="1.5" cy="1.5" r="1.5" transform="translate(17 119)" fill="#cad6e4"/>
  <circle id="Oval_Copy_83" data-name="Oval Copy 83" cx="1.5" cy="1.5" r="1.5" transform="translate(17 136)" fill="#cad6e4"/>
  <circle id="Oval_Copy_93" data-name="Oval Copy 93" cx="1.5" cy="1.5" r="1.5" transform="translate(17 153)" fill="#cad6e4"/>
  <circle id="Oval_Copy_4" data-name="Oval Copy 4" cx="1.5" cy="1.5" r="1.5" transform="translate(68)" fill="#cad6e4"/>
  <circle id="Oval_Copy_14" data-name="Oval Copy 14" cx="1.5" cy="1.5" r="1.5" transform="translate(68 17)" fill="#cad6e4"/>
  <circle id="Oval_Copy_24" data-name="Oval Copy 24" cx="1.5" cy="1.5" r="1.5" transform="translate(68 34)" fill="#cad6e4"/>
  <circle id="Oval_Copy_34" data-name="Oval Copy 34" cx="1.5" cy="1.5" r="1.5" transform="translate(68 51)" fill="#cad6e4"/>
  <circle id="Oval_Copy_44" data-name="Oval Copy 44" cx="1.5" cy="1.5" r="1.5" transform="translate(68 68)" fill="#cad6e4"/>
  <circle id="Oval_Copy_54" data-name="Oval Copy 54" cx="1.5" cy="1.5" r="1.5" transform="translate(68 85)" fill="#cad6e4"/>
  <circle id="Oval_Copy_64" data-name="Oval Copy 64" cx="1.5" cy="1.5" r="1.5" transform="translate(68 102)" fill="#cad6e4"/>
  <circle id="Oval_Copy_74" data-name="Oval Copy 74" cx="1.5" cy="1.5" r="1.5" transform="translate(68 119)" fill="#cad6e4"/>
  <circle id="Oval_Copy_84" data-name="Oval Copy 84" cx="1.5" cy="1.5" r="1.5" transform="translate(68 136)" fill="#cad6e4"/>
  <circle id="Oval_Copy_94" data-name="Oval Copy 94" cx="1.5" cy="1.5" r="1.5" transform="translate(68 153)" fill="#cad6e4"/>
  <circle id="Oval_Copy_7" data-name="Oval Copy 7" cx="1.5" cy="1.5" r="1.5" transform="translate(119)" fill="#cad6e4"/>
  <circle id="Oval_Copy_15" data-name="Oval Copy 15" cx="1.5" cy="1.5" r="1.5" transform="translate(119 17)" fill="#cad6e4"/>
  <circle id="Oval_Copy_25" data-name="Oval Copy 25" cx="1.5" cy="1.5" r="1.5" transform="translate(119 34)" fill="#cad6e4"/>
  <circle id="Oval_Copy_35" data-name="Oval Copy 35" cx="1.5" cy="1.5" r="1.5" transform="translate(119 51)" fill="#cad6e4"/>
  <circle id="Oval_Copy_45" data-name="Oval Copy 45" cx="1.5" cy="1.5" r="1.5" transform="translate(119 68)" fill="#cad6e4"/>
  <circle id="Oval_Copy_55" data-name="Oval Copy 55" cx="1.5" cy="1.5" r="1.5" transform="translate(119 85)" fill="#cad6e4"/>
  <circle id="Oval_Copy_65" data-name="Oval Copy 65" cx="1.5" cy="1.5" r="1.5" transform="translate(119 102)" fill="#cad6e4"/>
  <circle id="Oval_Copy_75" data-name="Oval Copy 75" cx="1.5" cy="1.5" r="1.5" transform="translate(119 119)" fill="#cad6e4"/>
  <circle id="Oval_Copy_85" data-name="Oval Copy 85" cx="1.5" cy="1.5" r="1.5" transform="translate(119 136)" fill="#cad6e4"/>
  <circle id="Oval_Copy_95" data-name="Oval Copy 95" cx="1.5" cy="1.5" r="1.5" transform="translate(119 153)" fill="#cad6e4"/>
  <circle id="Oval_Copy_2" data-name="Oval Copy 2" cx="1.5" cy="1.5" r="1.5" transform="translate(34)" fill="#cad6e4"/>
  <circle id="Oval_Copy_16" data-name="Oval Copy 16" cx="1.5" cy="1.5" r="1.5" transform="translate(34 17)" fill="#cad6e4"/>
  <circle id="Oval_Copy_26" data-name="Oval Copy 26" cx="1.5" cy="1.5" r="1.5" transform="translate(34 34)" fill="#cad6e4"/>
  <circle id="Oval_Copy_36" data-name="Oval Copy 36" cx="1.5" cy="1.5" r="1.5" transform="translate(34 51)" fill="#cad6e4"/>
  <circle id="Oval_Copy_46" data-name="Oval Copy 46" cx="1.5" cy="1.5" r="1.5" transform="translate(34 68)" fill="#cad6e4"/>
  <circle id="Oval_Copy_56" data-name="Oval Copy 56" cx="1.5" cy="1.5" r="1.5" transform="translate(34 85)" fill="#cad6e4"/>
  <circle id="Oval_Copy_66" data-name="Oval Copy 66" cx="1.5" cy="1.5" r="1.5" transform="translate(34 102)" fill="#cad6e4"/>
  <circle id="Oval_Copy_76" data-name="Oval Copy 76" cx="1.5" cy="1.5" r="1.5" transform="translate(34 119)" fill="#cad6e4"/>
  <circle id="Oval_Copy_86" data-name="Oval Copy 86" cx="1.5" cy="1.5" r="1.5" transform="translate(34 136)" fill="#cad6e4"/>
  <circle id="Oval_Copy_96" data-name="Oval Copy 96" cx="1.5" cy="1.5" r="1.5" transform="translate(34 153)" fill="#cad6e4"/>
  <circle id="Oval_Copy_5" data-name="Oval Copy 5" cx="1.5" cy="1.5" r="1.5" transform="translate(85)" fill="#cad6e4"/>
  <circle id="Oval_Copy_17" data-name="Oval Copy 17" cx="1.5" cy="1.5" r="1.5" transform="translate(85 17)" fill="#cad6e4"/>
  <circle id="Oval_Copy_27" data-name="Oval Copy 27" cx="1.5" cy="1.5" r="1.5" transform="translate(85 34)" fill="#cad6e4"/>
  <circle id="Oval_Copy_37" data-name="Oval Copy 37" cx="1.5" cy="1.5" r="1.5" transform="translate(85 51)" fill="#cad6e4"/>
  <circle id="Oval_Copy_47" data-name="Oval Copy 47" cx="1.5" cy="1.5" r="1.5" transform="translate(85 68)" fill="#cad6e4"/>
  <circle id="Oval_Copy_57" data-name="Oval Copy 57" cx="1.5" cy="1.5" r="1.5" transform="translate(85 85)" fill="#cad6e4"/>
  <circle id="Oval_Copy_67" data-name="Oval Copy 67" cx="1.5" cy="1.5" r="1.5" transform="translate(85 102)" fill="#cad6e4"/>
  <circle id="Oval_Copy_77" data-name="Oval Copy 77" cx="1.5" cy="1.5" r="1.5" transform="translate(85 119)" fill="#cad6e4"/>
  <circle id="Oval_Copy_87" data-name="Oval Copy 87" cx="1.5" cy="1.5" r="1.5" transform="translate(85 136)" fill="#cad6e4"/>
  <circle id="Oval_Copy_97" data-name="Oval Copy 97" cx="1.5" cy="1.5" r="1.5" transform="translate(85 153)" fill="#cad6e4"/>
  <circle id="Oval_Copy_8" data-name="Oval Copy 8" cx="1.5" cy="1.5" r="1.5" transform="translate(136)" fill="#cad6e4"/>
  <circle id="Oval_Copy_18" data-name="Oval Copy 18" cx="1.5" cy="1.5" r="1.5" transform="translate(136 17)" fill="#cad6e4"/>
  <circle id="Oval_Copy_28" data-name="Oval Copy 28" cx="1.5" cy="1.5" r="1.5" transform="translate(136 34)" fill="#cad6e4"/>
  <circle id="Oval_Copy_38" data-name="Oval Copy 38" cx="1.5" cy="1.5" r="1.5" transform="translate(136 51)" fill="#cad6e4"/>
  <circle id="Oval_Copy_48" data-name="Oval Copy 48" cx="1.5" cy="1.5" r="1.5" transform="translate(136 68)" fill="#cad6e4"/>
  <circle id="Oval_Copy_58" data-name="Oval Copy 58" cx="1.5" cy="1.5" r="1.5" transform="translate(136 85)" fill="#cad6e4"/>
  <circle id="Oval_Copy_68" data-name="Oval Copy 68" cx="1.5" cy="1.5" r="1.5" transform="translate(136 102)" fill="#cad6e4"/>
  <circle id="Oval_Copy_78" data-name="Oval Copy 78" cx="1.5" cy="1.5" r="1.5" transform="translate(136 119)" fill="#cad6e4"/>
  <circle id="Oval_Copy_88" data-name="Oval Copy 88" cx="1.5" cy="1.5" r="1.5" transform="translate(136 136)" fill="#cad6e4"/>
  <circle id="Oval_Copy_98" data-name="Oval Copy 98" cx="1.5" cy="1.5" r="1.5" transform="translate(136 153)" fill="#cad6e4"/>
  <circle id="Oval_Copy_9" data-name="Oval Copy 9" cx="1.5" cy="1.5" r="1.5" transform="translate(153)" fill="#cad6e4"/>
  <circle id="Oval_Copy_19" data-name="Oval Copy 19" cx="1.5" cy="1.5" r="1.5" transform="translate(153 17)" fill="#cad6e4"/>
  <circle id="Oval_Copy_29" data-name="Oval Copy 29" cx="1.5" cy="1.5" r="1.5" transform="translate(153 34)" fill="#cad6e4"/>
  <circle id="Oval_Copy_39" data-name="Oval Copy 39" cx="1.5" cy="1.5" r="1.5" transform="translate(153 51)" fill="#cad6e4"/>
  <circle id="Oval_Copy_49" data-name="Oval Copy 49" cx="1.5" cy="1.5" r="1.5" transform="translate(153 68)" fill="#cad6e4"/>
  <circle id="Oval_Copy_59" data-name="Oval Copy 59" cx="1.5" cy="1.5" r="1.5" transform="translate(153 85)" fill="#cad6e4"/>
  <circle id="Oval_Copy_69" data-name="Oval Copy 69" cx="1.5" cy="1.5" r="1.5" transform="translate(153 102)" fill="#cad6e4"/>
  <circle id="Oval_Copy_79" data-name="Oval Copy 79" cx="1.5" cy="1.5" r="1.5" transform="translate(153 119)" fill="#cad6e4"/>
  <circle id="Oval_Copy_89" data-name="Oval Copy 89" cx="1.5" cy="1.5" r="1.5" transform="translate(153 136)" fill="#cad6e4"/>
  <circle id="Oval_Copy_99" data-name="Oval Copy 99" cx="1.5" cy="1.5" r="1.5" transform="translate(153 153)" fill="#cad6e4"/>
</svg>
